<?xml version="1.0" encoding="utf-8"?>
<!-- Generator: Adobe Illustrator 21.0.0, SVG Export Plug-In . SVG Version: 6.00 Build 0)  -->
<svg version="1.1" id="Capa_1" xmlns="http://www.w3.org/2000/svg" xmlns:xlink="http://www.w3.org/1999/xlink" x="0px" y="0px"
	 viewBox="0 0 2000 1348" style="enable-background:new 0 0 2000 1348;" xml:space="preserve">
<style type="text/css">
	.st0{fill:#34261F;}
	.st1{fill:#FFFFFF;}
	.st2{fill:url(#SVGID_1_);}
	.st3{fill:url(#SVGID_2_);}
	.st4{fill:url(#SVGID_3_);}
	.st5{fill:url(#SVGID_4_);}
	.st6{fill:url(#SVGID_5_);}
	.st7{fill:url(#SVGID_6_);}
	.st8{fill:none;}
	.st9{fill:url(#SVGID_7_);}
</style>
<g>
	<path class="st0" d="M170.1,354.4h4.5V384c0,4.6-1.5,8-4.5,10.4c-3.3,2.6-8.5,3.9-15.5,3.9c-6.3,0-11.2-1.4-14.6-4.3
		c-3-2.4-4.8-6.1-4.7-10v-29.6h4.5v29.1c0,3.4,1.6,6,4.7,8c3.1,1.8,6.6,2.7,10.2,2.6c3.6,0.1,7.2-0.8,10.4-2.5
		c3.4-2,5.1-4.7,5.1-8.1L170.1,354.4z M28.2,358.7H45v39.1h4.4v-39.1h16.7v-4.1H28.2V358.7z M113.6,373.3H82.7v-18.9h-4.3v43.4h4.3
		v-20.1h30.9v20.1h4.6v-43.4h-4.6V373.3z M342.1,354.4h-3.9l-21.1,43.4h5.5l6.9-14.7H344l-2.5-3.9h-10.2l9.1-19l7,15.2l0,0v0.1
		l8.3,17l2.4,5.4h4.5L342.1,354.4z M316.8,354.4l-15.6,17.1L286,354.4h-5.7l18.6,21.2v22.2h4v-21.9l19.3-21.5L316.8,354.4z
		 M228.7,375.8c-2,1.6-5,2.7-8.9,3.3l12.3,18.6h-4.9l-12.3-18.4h-18.5v18.4h-4.5v-43.2h28.3c3.3-0.1,6.6,1.3,8.9,3.7
		c2.3,2.3,3.5,5.4,3.5,8.7C232.5,370.8,231.2,373.8,228.7,375.8z M227.8,367c0.1-1.9-0.5-3.8-1.6-5.3c-1.3-1.8-3.4-2.8-5.6-2.7
		h-24.2v16.2h23.9c2.1,0.1,4.2-0.9,5.5-2.5C227.1,371.1,227.8,369,227.8,367L227.8,367z M259.4,354.4l-20.7,43.4h4.5l4.1-9l5.1-10.7
		l1.4-2.8l0,0l7-15.2l9.1,19h-10.2l-2.4,3.9H272l6.9,14.7h5.5l-21.1-43.4L259.4,354.4z"/>
	<path class="st0" d="M0.3,304.5c32.6-0.9,65.1-1.4,97.7-1.8c16.3-0.2,32.6-0.3,48.9-0.4l48.9-0.1l48.9,0.1
		c16.3,0.1,32.6,0.2,48.9,0.4c32.6,0.3,65.1,0.8,97.7,1.8c-32.6,0.9-65.1,1.4-97.7,1.8c-16.3,0.2-32.6,0.3-48.9,0.4l-48.9,0.1
		l-48.9-0.1c-16.3-0.1-32.6-0.2-48.9-0.4C65.5,305.9,32.9,305.4,0.3,304.5z"/>
	<path class="st0" d="M271.8,157.3c3.8-28.5-4.9-51.8-26.1-69.1c-10-8.2-22.3-12.6-36.6-13c-0.6,0-1.3,0-1.9,0c-1.4,0-2.7,0-4.1,0.1
		c2.5-1.3,5.1-2.2,7.8-2.8c13.3-2.6,25.8,0.3,38.3,9.1c17,11.9,27,28.3,29.6,48.6c3.3,24.7-2.8,46.6-18.3,65.2
		c-2.7,3.1-5.6,6-8.8,8.6c0.4-0.6,0.8-1.1,1.2-1.7C263.6,187.1,269.7,172.4,271.8,157.3z M108.1,195.4c9.6,9.3,20.8,16.5,33.2,21.4
		c15.5,6.1,32.4,7.9,48.9,5.3c15.6-2.3,29.4-8.1,40.9-17.1c5.7-4.4,10.7-9.6,14.8-15.5c-2.8,3.4-5.9,6.5-9.3,9.2
		c-22.1,17.1-48.2,23.2-77.4,18.1c-19.7-3.4-37.8-13.4-53.9-29.6c-13.8-14-24.2-31.1-30.2-49.9c-0.8-2.6-1.6-5.1-2.3-7.7
		C77.8,155.6,89.7,177.7,108.1,195.4z M134.2,52.8c-16.1,21-22.4,42.7-19.4,66.3c2.8,22.2,13.8,39.3,32.6,50.9
		c9.8,6,20,8.6,30.1,7.7c-3.2-1.1-6.4-2.4-9.5-3.8c-15.7-7.2-27.6-17.8-35.4-31.5c-5.9-10.4-9.3-22-10.4-35.5
		c-0.7-8.8-0.1-17.8,1.8-26.4h-0.6l0.7-0.5c1.7-7.3,4.4-14.3,8.1-20.9c2.9-5.3,6.4-10.2,10.3-14.8C139.4,46.7,136.6,49.6,134.2,52.8
		z M269.2,63.9c-6.8-6.2-14.7-11.2-23.2-14.6c-15-6.4-31.6-8.3-47.7-5.5c-16.4,2.9-30.2,11-42,25c-10.8,12.8-14.6,26.8-11.5,42.5
		c1.3-4.2,2.8-8.3,4.5-12.3c8.4-19.3,21.4-33,38.9-40.8c19.1-8.5,38.1-10.3,56.6-5.4C253.5,55.2,261.7,58.9,269.2,63.9z M142.8,198
		c18.4,8.7,36,11.3,53.6,7.9c16.3-3,31-11.7,41.5-24.6c8.6-10.4,13.4-23.4,13.7-36.9c0.2-7-1.6-12.6-5.5-17.2c0,0.1,0,0.2,0,0.3
		c-0.4,13.2-3.9,26.1-10.3,37.7c-10.3,18.9-32.3,36.7-59.1,36.7c-4.4,0-8.7-0.5-13-1.4c-18.1-3.8-33.4-10.8-46.3-21.2
		c0.4,0.5,0.8,0.9,1.1,1.4C124.4,187.5,132.1,192.9,142.8,198z M131.1,31.1c-12.9,12.8-22.5,28.8-28.4,47.7
		c-4.5,13.7-5.4,28.4-2.6,42.6c2.6,13.3,8.4,25.7,17.6,38c2.3,3.1,5,6.1,7.8,8.8c-4.4-5.1-8.1-10.8-11.2-16.8
		c-7.1-13.9-10.2-28.9-9.6-45.9c0.5-16.4,4.8-32.4,12.6-46.8c11.7-21.6,29.1-38,51.7-48.8c6.3-3,12.9-5.5,19.6-7.3
		c-2.3,0.3-4.5,0.7-6.7,1.2C162.7,7.8,145.1,17.3,131.1,31.1z M265.1,216.2c13.2-14.1,22.1-31.2,26.5-50.7
		c2.8-12.6,3.4-24.1,1.9-35.3c-1.9-14.2-7.4-27.2-16.6-39.5c-3.9-5.3-8.5-10.1-13.8-14.1c4.4,3.9,8.3,8.3,11.6,13.2
		c11.1,16.7,16.4,33.5,16.3,51.2c-0.1,20.8-6.6,40.9-19.2,59.6c-12.9,19.2-31.3,33.7-54.4,42.9c-7.3,2.9-15,5.2-22.7,6.6
		C221.5,248,246.6,235.9,265.1,216.2L265.1,216.2z M298.6,73.5c8.3,11.1,14.9,23.4,19.6,36.4c-0.4-1.4-0.8-2.9-1.2-4.3
		c-4.8-16.2-13.1-30.8-25.4-44.8c-17.1-19.5-38.7-30.7-64.3-33.5c-17-1.9-34.3,1-49.8,8.4c-8.4,3.8-16.1,9.1-22.5,15.7
		C168,41,183.6,34.3,200.1,32c4.1-0.6,8.3-0.8,12.5-0.8c7.1,0,14.2,0.7,21.1,2.1C261,38.7,282.8,52.2,298.6,73.5z"/>
	<path class="st0" d="M28.2,416.7c0-0.1,0-0.2,0.1-0.3c0.1-0.1,0.2-0.1,0.3-0.1h4.2c0.5,0,1.1,0.1,1.6,0.3c0.5,0.2,0.9,0.5,1.3,0.8
		c0.4,0.4,0.6,0.8,0.8,1.3s0.3,1,0.3,1.6c0,0.5-0.1,1.1-0.3,1.6c-0.4,1-1.2,1.7-2.1,2.1c-0.5,0.2-1,0.3-1.6,0.3h-3.5v4.5
		c0,0.2-0.1,0.4-0.3,0.4h-0.1h-0.2c-0.3,0-0.4-0.1-0.4-0.4L28.2,416.7L28.2,416.7z M35.7,420.3c0-0.4-0.1-0.8-0.2-1.2
		c-0.2-0.4-0.4-0.7-0.7-1c-0.6-0.6-1.3-0.9-2.2-0.9h-3.5v6.2h3.6c0.4,0,0.8-0.1,1.2-0.2c0.4-0.2,0.7-0.4,1-0.7
		c0.3-0.3,0.5-0.6,0.7-1C35.7,421.2,35.8,420.8,35.7,420.3L35.7,420.3z M49.5,416.3c0.2,0,0.3,0.1,0.3,0.2v0.1v0.4
		c0,0.1,0,0.2-0.1,0.2c-0.1,0.1-0.2,0.1-0.3,0.1h-7.6v4.6H48c0.1,0,0.2,0,0.2,0.1c0.1,0.1,0.1,0.2,0.1,0.2v0.4
		c0,0.2-0.1,0.3-0.3,0.3c0,0,0,0-0.1,0h-6.1v5.2h7.8c0.2,0,0.3,0.1,0.3,0.2v0.1v0.5c0,0.2-0.1,0.3-0.3,0.3H41c-0.1,0-0.1,0-0.2-0.1
		c-0.1-0.1-0.1-0.1-0.1-0.2v-12.4c0-0.1,0-0.2,0.1-0.2c0.1-0.1,0.2-0.1,0.2-0.1L49.5,416.3L49.5,416.3z M58.9,416.3
		c1.1,0,2.1,0.4,2.9,1.2c0.4,0.4,0.6,0.8,0.8,1.3c0.4,0.9,0.4,1.9,0.1,2.8c-0.1,0.4-0.3,0.7-0.5,1.1c-0.2,0.3-0.5,0.6-0.8,0.8
		c-0.3,0.3-0.6,0.5-1,0.6l2.2,4.8c0,0.1,0,0.1,0,0.2v0.1l-0.1,0.1c-0.1,0-0.2,0-0.2,0h-0.5c-0.1,0-0.2-0.1-0.2-0.2l-2.1-4.7
		c-0.1,0-0.2,0-0.4,0.1c-0.1,0-0.3,0-0.4,0h-4.3v4.5c0,0.2-0.1,0.3-0.2,0.3h-0.1h-0.4c-0.1,0-0.3-0.1-0.3-0.2V429v-12.4
		c0-0.1,0.1-0.2,0.1-0.2c0.1,0,0.1-0.1,0.2-0.1H58.9z M58.4,423.5h0.2c0.2,0,0.4,0,0.7,0c0.2,0,0.4-0.1,0.7-0.1
		c0.3-0.1,0.6-0.3,0.8-0.4c0.3-0.2,0.5-0.4,0.7-0.7c0.2-0.3,0.3-0.5,0.4-0.8c0.1-0.3,0.2-0.6,0.2-1s-0.1-0.8-0.2-1.2
		c-0.2-0.4-0.4-0.7-0.6-1c-0.3-0.3-0.6-0.5-1-0.7s-0.8-0.2-1.2-0.2h-4.3v6.2L58.4,423.5z M75.6,416.3c0.2,0,0.3,0.1,0.3,0.3v0.4
		c0,0.1,0,0.2-0.1,0.2c-0.1,0.1-0.2,0.1-0.3,0.1h-7.6v5.1H74c0.1,0,0.2,0,0.2,0.1c0.1,0.1,0.1,0.2,0.1,0.3v0.4c0,0.1,0,0.2-0.1,0.2
		c-0.1,0.1-0.2,0.1-0.2,0.1h-6.1v5.4c0,0.2-0.1,0.3-0.3,0.3h-0.5c-0.1,0-0.3-0.1-0.3-0.2v-0.1v-12.4c0-0.2,0.1-0.3,0.2-0.3h0.1h8.5
		C75.6,416.2,75.6,416.3,75.6,416.3z M80.4,424.1c0,0.6,0.1,1.2,0.3,1.7c0.4,1.1,1.2,1.9,2.3,2.3c0.6,0.2,1.1,0.4,1.7,0.3
		c0.6,0,1.2-0.1,1.8-0.3c0.5-0.2,1-0.5,1.4-0.9s0.7-0.9,0.9-1.4c0.2-0.6,0.3-1.1,0.3-1.7v-7.5c0-0.1,0-0.2,0.1-0.2
		c0.1-0.1,0.2-0.1,0.2-0.1h0.3c0.1,0,0.2,0,0.2,0.1c0.1,0.1,0.1,0.1,0.1,0.2v7.6c0,1.4-0.6,2.8-1.6,3.8c-0.5,0.5-1.1,0.8-1.7,1.1
		c-0.7,0.3-1.4,0.4-2.1,0.4c-0.5,0-1-0.1-1.4-0.2s-0.9-0.3-1.3-0.5s-0.8-0.5-1.1-0.8c-0.3-0.3-0.6-0.7-0.8-1.1
		c-0.2-0.4-0.4-0.8-0.5-1.3s-0.2-0.9-0.2-1.4v-7.6c0-0.1,0-0.2,0.1-0.2c0.1-0.1,0.1-0.1,0.2-0.1H80c0.1,0,0.2,0,0.2,0.1
		c0.1,0.1,0.1,0.1,0.1,0.2v7.5H80.4z M107.1,422.8c0.2,2,0.4,4.1,0.6,6.2l0,0c0,0.1-0.1,0.3-0.2,0.3h-0.1H107
		c-0.2,0-0.3-0.1-0.3-0.3c0,0,0,0,0-0.1l-1-10.7l-4.4,9.9c0,0.1-0.1,0.1-0.2,0.2c-0.1,0-0.1,0.1-0.2,0.1h-0.2c-0.1,0-0.1,0-0.2,0
		s-0.1-0.1-0.2-0.2l-2.2-5c-0.7-1.7-1.5-3.3-2.2-5l-1,10.7c0,0.2-0.1,0.3-0.2,0.3h-0.1h-0.4c-0.1,0-0.2,0-0.2-0.1
		c-0.1-0.1-0.1-0.2-0.1-0.3l1.2-12.3c0-0.1,0-0.2,0.1-0.3c0.1,0,0.2-0.1,0.2-0.1H96c0.1,0,0.2,0.1,0.2,0.2l4.6,10.2l4.6-10.2
		c0-0.1,0.1-0.1,0.1-0.2c0.1,0,0.1-0.1,0.2-0.1h0.5c0.1,0,0.2,0,0.2,0.1c0.1,0.1,0.1,0.1,0.1,0.2v0.1
		C106.7,418.7,106.9,420.8,107.1,422.8L107.1,422.8z M120.4,416.3c0.2,0,0.3,0.1,0.3,0.2v0.1v0.4c0,0.1,0,0.2-0.1,0.2
		c-0.1,0.1-0.2,0.1-0.3,0.1h-7.6v4.6h6.1c0.1,0,0.2,0,0.2,0.1c0.1,0.1,0.1,0.2,0.1,0.2v0.4c0,0.2-0.1,0.3-0.3,0.3c0,0,0,0-0.1,0
		h-6.1v5.2h7.8c0.2,0,0.3,0.1,0.3,0.2v0.1v0.5c0,0.2-0.1,0.3-0.3,0.3H112c-0.1,0-0.1,0-0.2-0.1s-0.1-0.1-0.1-0.2v-12.4
		c0-0.1,0-0.2,0.1-0.2c0.1-0.1,0.2-0.1,0.2-0.1L120.4,416.3L120.4,416.3z M124,427l0.3-0.3c0.1-0.1,0.2-0.1,0.3-0.1
		c0.1,0,0.1,0,0.2,0.1l0.1,0.1c0.3,0.3,0.5,0.5,0.8,0.7s0.6,0.4,0.9,0.5s0.7,0.3,1,0.3c0.3,0.1,0.7,0.1,1,0.1c0.5,0,0.9-0.1,1.4-0.2
		c0.4-0.1,0.9-0.3,1.2-0.5c0.4-0.2,0.7-0.5,0.9-0.9s0.4-0.9,0.3-1.3c0-0.3-0.1-0.5-0.2-0.8c-0.1-0.2-0.3-0.4-0.5-0.6
		s-0.4-0.3-0.7-0.4s-0.6-0.2-0.8-0.3c-0.3-0.1-0.6-0.2-0.9-0.3l-0.9-0.2c-0.6-0.1-1.3-0.3-1.9-0.5c-0.5-0.2-0.9-0.4-1.3-0.7
		c-0.3-0.2-0.6-0.6-0.8-0.9c-0.2-0.4-0.3-0.8-0.3-1.2c0-0.5,0.1-1,0.3-1.4c0.2-0.4,0.5-0.8,0.9-1.1c0.4-0.3,0.9-0.6,1.4-0.7
		c0.6-0.2,1.2-0.3,1.9-0.2c0.7,0,1.5,0.1,2.2,0.4s1.3,0.7,1.8,1.2l0.2,0.2l0.1,0.1c0,0.1,0,0.1-0.1,0.2l-0.2,0.3l-0.1,0.1h-0.1
		c-0.1,0-0.2-0.1-0.3-0.2c-0.2-0.2-0.4-0.3-0.6-0.5c-0.2-0.2-0.5-0.3-0.7-0.4c-0.3-0.1-0.6-0.2-0.9-0.3c-0.4-0.1-0.7-0.1-1.1-0.1
		c-0.5,0-1,0.1-1.5,0.2c-0.4,0.1-0.7,0.3-1.1,0.5c-0.5,0.4-0.8,1.1-0.8,1.8c0,0.2,0,0.5,0.1,0.7s0.2,0.4,0.4,0.5
		c0.2,0.2,0.4,0.3,0.6,0.4s0.5,0.2,0.7,0.3c0.3,0.1,0.5,0.2,0.8,0.3s0.6,0.2,0.8,0.2l1.1,0.3c0.4,0.1,0.7,0.2,1.1,0.3
		c0.3,0.1,0.7,0.3,1,0.4c0.3,0.2,0.6,0.4,0.8,0.6c0.5,0.5,0.8,1.2,0.8,1.9c0,0.6-0.1,1.2-0.4,1.7c-0.3,0.5-0.6,0.9-1.1,1.2
		c-0.5,0.3-1,0.6-1.6,0.7c-0.6,0.2-1.3,0.3-1.9,0.3c-0.4,0-0.9,0-1.3-0.1s-0.8-0.2-1.2-0.4c-0.4-0.2-0.8-0.4-1.1-0.7
		c-0.4-0.3-0.7-0.6-0.9-1l-0.1-0.1v-0.1C124,427.1,124,427,124,427L124,427z M145,415.4c0-0.1,0-0.2,0.1-0.3
		c0.1-0.1,0.1-0.1,0.2-0.1h0.5c0.1,0,0.2,0,0.2,0.1c0.1,0.1,0.1,0.2,0.1,0.3V432c0,0.1,0,0.2-0.1,0.3c-0.1,0.1-0.1,0.1-0.2,0.1h-0.5
		c-0.1,0-0.2,0-0.2-0.1c-0.1-0.1-0.1-0.2-0.1-0.3V415.4z M168.6,417.6c0.1,0.1,0.2,0.2,0.2,0.3c0,0.1,0,0.1-0.1,0.2l-0.2,0.3
		l-0.1,0.1h-0.1c-0.1,0-0.3-0.1-0.4-0.2c-0.5-0.4-1-0.6-1.6-0.8c-0.6-0.2-1.2-0.3-1.8-0.3c-0.5,0-1,0.1-1.5,0.2
		c-1,0.3-1.8,0.8-2.5,1.5c-0.3,0.3-0.6,0.7-0.9,1.2c-0.2,0.4-0.4,0.9-0.6,1.3c-0.1,0.5-0.2,1-0.2,1.5s0.1,1,0.2,1.5
		c0.1,0.5,0.3,0.9,0.6,1.4c0.3,0.4,0.6,0.8,0.9,1.2c0.3,0.3,0.7,0.7,1.1,0.9c0.4,0.3,0.9,0.5,1.3,0.6c0.8,0.2,1.6,0.3,2.4,0.1
		c0.7-0.1,1.3-0.4,1.9-0.7c0.3-0.2,0.6-0.3,0.8-0.5c0.1-0.1,0.1-0.1,0.2-0.1c0.1,0,0.3,0.1,0.3,0.2l0.1,0.2c0,0.1,0.1,0.1,0.1,0.2
		s-0.1,0.3-0.2,0.3c-0.6,0.4-1.2,0.8-1.9,1c-1.3,0.4-2.7,0.5-4,0.1c-1.1-0.3-2.1-0.9-2.9-1.7c-0.4-0.4-0.8-0.9-1.1-1.4
		s-0.5-1-0.7-1.6s-0.2-1.2-0.2-1.8c0-0.6,0.1-1.2,0.2-1.8c0.1-0.6,0.4-1.1,0.7-1.6s0.6-0.9,1-1.3s0.9-0.8,1.4-1
		c0.5-0.3,1-0.5,1.6-0.7c1.3-0.4,2.7-0.3,4,0.1C167.4,416.8,168,417.1,168.6,417.6L168.6,417.6z M172.1,429l0.1-0.4l0.1-0.3
		l4.9-11.8c0-0.1,0.1-0.1,0.1-0.2c0.1-0.1,0.1-0.1,0.2-0.1h0.4c0.1,0,0.2,0,0.2,0.1l0.1,0.2l5.1,12.4v0.1v0.1c0,0.1-0.1,0.2-0.3,0.2
		h-0.5c-0.1,0-0.3-0.1-0.3-0.2l-1.2-3h-6.6c-0.2,0.6-0.4,1.1-0.6,1.6c-0.2,0.5-0.4,1-0.6,1.4c0,0.1-0.2,0.2-0.3,0.2h-0.5
		C172.2,429.3,172.2,429.2,172.1,429L172.1,429L172.1,429L172.1,429z M174.9,425h5.8l-2.9-7L174.9,425z M197.1,416.6
		c0-0.2,0.1-0.3,0.3-0.3c0,0,0,0,0.1,0h0.4c0.2,0,0.3,0.1,0.3,0.3V429c0,0.2-0.1,0.3-0.3,0.3h-0.4c-0.1,0-0.2-0.1-0.3-0.1l-8.8-11.2
		v11c0,0.2-0.1,0.3-0.3,0.3h-0.4c-0.2,0-0.3-0.1-0.3-0.2V429v-12.4c0-0.1,0-0.1,0-0.2l0.1-0.1c0.1,0,0.2,0,0.3,0h0.5
		c0.1,0,0.1,0,0.2,0.1l2.2,2.7l2.3,2.8l2.3,2.8l2.2,2.7L197.1,416.6z M202.6,416.6c0-0.2,0.1-0.3,0.2-0.3c0,0,0,0,0.1,0h4.2
		c0.6,0,1.2,0.1,1.7,0.2c0.5,0.2,1.1,0.4,1.6,0.7c0.5,0.3,0.9,0.6,1.3,1c0.4,0.4,0.7,0.8,1,1.3c0.6,1,0.9,2.1,0.8,3.3
		c0,0.6-0.1,1.2-0.2,1.7c-0.2,0.5-0.4,1.1-0.7,1.6s-0.6,0.9-1,1.3c-0.8,0.8-1.8,1.4-2.9,1.7c-0.6,0.2-1.2,0.2-1.8,0.2h-4.1h-0.1l0,0
		h-0.1c0,0-0.1,0-0.1-0.1v-0.1L202.6,416.6z M207.1,428.2c0.5,0,1-0.1,1.5-0.2s0.9-0.3,1.3-0.6c0.8-0.5,1.5-1.1,2-2
		c0.2-0.4,0.4-0.8,0.5-1.3s0.2-1,0.2-1.4c0-0.7-0.1-1.5-0.4-2.1c-0.3-0.6-0.7-1.2-1.2-1.7s-1.1-0.9-1.7-1.1
		c-0.7-0.3-1.4-0.4-2.1-0.4h-3.4v10.8L207.1,428.2z M225.9,428.2c0.1,0,0.2,0,0.2,0.1c0.1,0.1,0.1,0.2,0.1,0.2v0.5
		c0,0.1,0,0.2-0.1,0.2c-0.1,0.1-0.1,0.1-0.2,0.1h-7.6c-0.1,0-0.3-0.1-0.3-0.2V429v-12.3c0-0.1,0-0.2,0.1-0.2
		c0.1-0.1,0.2-0.1,0.2-0.1h0.5c0.1,0,0.2,0,0.2,0.1c0.1,0.1,0.1,0.1,0.1,0.2v11.6L225.9,428.2z M238.6,416.2c0.2,0,0.3,0.1,0.3,0.2
		v0.1v0.4c0,0.1,0,0.2-0.1,0.2c-0.1,0.1-0.2,0.1-0.3,0.1h-7.6v4.6h6.1c0.1,0,0.2,0,0.2,0.1c0.1,0.1,0.1,0.2,0.1,0.2v0.5
		c0,0.1,0,0.2-0.1,0.2c-0.1,0.1-0.2,0.1-0.3,0.1h-6.1v5.2h7.8c0.2,0,0.3,0.1,0.3,0.2v0.1v0.5c0,0.2-0.1,0.3-0.2,0.3h-0.1H230
		c-0.1,0-0.1,0-0.2-0.1c-0.1-0.1-0.1-0.1-0.1-0.2v-12.4c0-0.1,0-0.2,0.1-0.2c0.1-0.1,0.2-0.1,0.2-0.1L238.6,416.2z M242.2,427
		l0.3-0.3c0.1-0.1,0.2-0.1,0.3-0.1s0.1,0,0.2,0.1l0.1,0.1c0.3,0.3,0.5,0.5,0.8,0.7s0.6,0.4,0.9,0.5c0.3,0.1,0.7,0.3,1,0.3
		c0.3,0.1,0.7,0.1,1,0.1c0.5,0,0.9-0.1,1.4-0.2c0.4-0.1,0.9-0.3,1.2-0.5c0.4-0.2,0.7-0.5,0.9-0.9s0.4-0.9,0.3-1.3
		c0-0.3-0.1-0.5-0.2-0.8c-0.1-0.2-0.3-0.4-0.5-0.6s-0.4-0.3-0.7-0.4s-0.6-0.2-0.8-0.3c-0.3-0.1-0.6-0.2-0.9-0.3l-0.9-0.2
		c-0.6-0.1-1.3-0.3-1.9-0.5c-0.5-0.2-0.9-0.4-1.3-0.7c-0.3-0.2-0.6-0.6-0.8-0.9c-0.2-0.4-0.3-0.8-0.3-1.2c0-0.5,0.1-1,0.3-1.4
		s0.5-0.8,0.9-1.1c0.4-0.3,0.9-0.6,1.4-0.7c0.6-0.2,1.2-0.3,1.9-0.2c0.7,0,1.5,0.1,2.2,0.4s1.3,0.7,1.8,1.2c0.1,0.1,0.1,0.1,0.2,0.2
		l0.1,0.1c0,0.1,0,0.1-0.1,0.2l-0.3,0.3l-0.1,0.1h-0.1c-0.1,0-0.2-0.1-0.3-0.2c-0.2-0.2-0.4-0.3-0.6-0.5c-0.2-0.2-0.5-0.3-0.7-0.4
		c-0.3-0.1-0.6-0.2-0.9-0.3c-0.4-0.1-0.7-0.1-1.1-0.1c-0.5,0-1,0.1-1.5,0.2c-0.4,0.1-0.7,0.3-1.1,0.5c-0.5,0.4-0.8,1.1-0.8,1.8
		c0,0.2,0,0.5,0.1,0.7s0.2,0.4,0.4,0.5c0.2,0.2,0.4,0.3,0.6,0.4c0.2,0.1,0.5,0.2,0.7,0.3c0.3,0.1,0.5,0.2,0.8,0.3
		c0.3,0.1,0.6,0.2,0.8,0.2l1.1,0.3c0.4,0.1,0.7,0.2,1.1,0.3c0.3,0.1,0.7,0.3,1,0.4c0.3,0.2,0.6,0.4,0.8,0.6s0.4,0.5,0.6,0.8
		c0.1,0.3,0.2,0.7,0.2,1.1c0,0.6-0.1,1.2-0.4,1.7c-0.3,0.5-0.6,0.9-1.1,1.2c-0.5,0.3-1,0.6-1.6,0.7c-0.6,0.2-1.3,0.3-1.9,0.3
		c-0.4,0-0.9,0-1.3-0.1c-0.4-0.1-0.8-0.2-1.2-0.4c-0.4-0.2-0.8-0.4-1.1-0.7c-0.4-0.3-0.7-0.6-0.9-1l-0.1-0.1v-0.1
		C242.2,427.1,242.2,427,242.2,427z M263.2,415.4c0-0.1,0-0.2,0.1-0.3c0.1-0.1,0.1-0.1,0.2-0.1h0.5c0.1,0,0.2,0,0.2,0.1
		c0.1,0.1,0.1,0.2,0.1,0.3V432c0,0.1,0,0.2-0.1,0.3c-0.1,0.1-0.1,0.1-0.2,0.1h-0.5c-0.1,0-0.2,0-0.2-0.1c-0.1-0.1-0.1-0.2-0.1-0.3
		V415.4z M276.5,416.6c0-0.1,0-0.2,0.1-0.2c0.1-0.1,0.1-0.1,0.2-0.1h0.5c0.1,0,0.2,0,0.2,0.1c0.1,0.1,0.1,0.1,0.1,0.2V429
		c0,0.2-0.1,0.3-0.2,0.3h-0.1h-0.5c-0.2,0-0.3-0.1-0.3-0.2V429L276.5,416.6z M292.1,416.6c0-0.2,0.1-0.3,0.3-0.3c0,0,0,0,0.1,0h0.4
		c0.2,0,0.3,0.1,0.3,0.3V429c0,0.2-0.1,0.3-0.3,0.3h-0.4c-0.1,0-0.2-0.1-0.3-0.1l-8.8-11.2v11c0,0.2-0.1,0.3-0.3,0.3h-0.4
		c-0.1,0-0.3-0.1-0.3-0.2V429v-12.4c0-0.1,0-0.1,0-0.2l0.1-0.1c0.1,0,0.2,0,0.3,0h0.5c0.1,0,0.1,0,0.2,0.1l2.2,2.7
		c0.7,0.9,1.5,1.9,2.3,2.8l2.3,2.8l2.2,2.7L292.1,416.6z M307.8,417.6c0.1,0,0.2,0.2,0.2,0.3c0,0.1,0,0.1-0.1,0.2l-0.2,0.3l-0.1,0.1
		h-0.1c-0.1,0-0.2-0.1-0.3-0.2c-0.5-0.4-1-0.6-1.6-0.8c-0.6-0.2-1.2-0.3-1.8-0.3c-1,0-2,0.3-2.9,0.8c-0.4,0.3-0.8,0.6-1.2,0.9
		c-0.3,0.3-0.6,0.7-0.9,1.2c-0.2,0.4-0.4,0.9-0.6,1.3c-0.1,0.5-0.2,1-0.2,1.5s0.1,1,0.2,1.5s0.3,0.9,0.6,1.4
		c0.5,0.8,1.2,1.6,2.1,2.1c0.4,0.3,0.9,0.5,1.3,0.6c0.5,0.1,0.9,0.2,1.4,0.2c0.3,0,0.6,0,0.9-0.1s0.6-0.1,0.9-0.3
		c0.3-0.1,0.6-0.2,0.9-0.4c0.3-0.2,0.6-0.3,0.8-0.5c0.1-0.1,0.1-0.1,0.2-0.1s0.3,0.1,0.3,0.2l0.1,0.2c0,0.1,0.1,0.1,0.1,0.2
		s-0.1,0.3-0.2,0.3c-0.6,0.4-1.2,0.8-1.9,1c-0.7,0.2-1.5,0.4-2.2,0.4c-0.6,0-1.2-0.1-1.8-0.2c-0.6-0.2-1.1-0.4-1.7-0.7
		c-0.5-0.3-0.9-0.6-1.4-1c-0.4-0.4-0.8-0.9-1-1.4c-0.3-0.5-0.5-1-0.7-1.6s-0.2-1.2-0.2-1.8c0-0.6,0.1-1.2,0.2-1.8
		c0.2-0.6,0.4-1.1,0.7-1.6c0.3-0.5,0.6-0.9,1-1.3s0.9-0.8,1.4-1c0.5-0.3,1-0.5,1.6-0.7c1.3-0.4,2.7-0.3,4,0.1
		C306.6,416.7,307.2,417.1,307.8,417.6L307.8,417.6z M320.9,416.3c0.2,0,0.3,0.1,0.3,0.2v0.1v0.4c0,0.1,0,0.2-0.1,0.2
		c-0.1,0.1-0.2,0.1-0.3,0.1h-7.6v4.6h6.1c0.1,0,0.2,0,0.2,0.1c0.1,0.1,0.1,0.2,0.1,0.2v0.4c0,0.2-0.1,0.3-0.3,0.3c0,0,0,0-0.1,0
		h-6.1v5.2h7.8c0.2,0,0.3,0.1,0.3,0.2v0.1v0.5c0,0.2-0.1,0.3-0.3,0.3h-8.6c-0.1,0-0.1,0-0.2-0.1s-0.1-0.1-0.1-0.2v-12.4
		c0-0.1,0-0.2,0.1-0.2c0.1-0.1,0.2-0.1,0.2-0.1L320.9,416.3z M334.8,416.6c0-0.2,0.1-0.3,0.3-0.3c0,0,0,0,0.1,0h0.4
		c0.2,0,0.3,0.1,0.3,0.3V429c0,0.2-0.1,0.3-0.3,0.3h-0.4c-0.1,0-0.2-0.1-0.3-0.1L326,418v11c0,0.2-0.1,0.3-0.3,0.3h-0.4
		c-0.1,0-0.3-0.1-0.3-0.2V429v-12.4c0-0.1,0-0.1,0-0.2l0.1-0.1c0.1,0,0.2,0,0.3,0h0.5c0.1,0,0.1,0,0.2,0.1c0.7,0.8,1.4,1.8,2.1,2.7
		l2.3,2.8l2.3,2.8l2.2,2.7L334.8,416.6z M339.9,427l0.3-0.3c0.1-0.1,0.2-0.1,0.3-0.1c0.1,0,0.1,0,0.2,0.1l0.1,0.1
		c0.3,0.3,0.5,0.5,0.8,0.7s0.6,0.4,0.9,0.5s0.7,0.3,1,0.3c0.3,0.1,0.7,0.1,1,0.1c0.5,0,0.9-0.1,1.4-0.2c0.4-0.1,0.9-0.3,1.3-0.5
		s0.7-0.5,0.9-0.9c0.2-0.4,0.4-0.9,0.3-1.3c0-0.3-0.1-0.5-0.2-0.8c-0.1-0.2-0.3-0.4-0.5-0.6s-0.4-0.3-0.7-0.4
		c-0.3-0.1-0.6-0.2-0.8-0.3c-0.3-0.1-0.6-0.2-0.9-0.3l-0.9-0.2c-0.6-0.1-1.3-0.3-1.9-0.5c-0.5-0.2-0.9-0.4-1.3-0.7
		c-0.3-0.2-0.6-0.6-0.8-0.9c-0.2-0.4-0.3-0.8-0.3-1.2c0-0.5,0.1-1,0.3-1.4c0.2-0.4,0.5-0.8,0.9-1.1c0.4-0.3,0.9-0.6,1.4-0.7
		c0.6-0.2,1.2-0.3,1.9-0.2c0.7,0,1.5,0.1,2.2,0.4s1.3,0.7,1.8,1.2c0.1,0.1,0.1,0.1,0.2,0.2l0.1,0.1c0,0.1,0,0.1-0.1,0.2l-0.3,0.3
		l-0.1,0.1h-0.1c-0.1,0-0.2-0.1-0.3-0.2c-0.2-0.2-0.4-0.3-0.6-0.5s-0.5-0.3-0.7-0.4c-0.3-0.1-0.6-0.2-0.9-0.3
		c-0.4-0.1-0.7-0.1-1.1-0.1c-0.5,0-1,0.1-1.5,0.2c-0.4,0.1-0.7,0.3-1.1,0.5c-0.5,0.4-0.8,1.1-0.8,1.8c0,0.2,0,0.5,0.1,0.7
		s0.2,0.4,0.4,0.5c0.2,0.2,0.4,0.3,0.6,0.4s0.5,0.2,0.7,0.3s0.5,0.2,0.8,0.3c0.3,0.1,0.6,0.2,0.8,0.2l1.1,0.3
		c0.4,0.1,0.7,0.2,1.1,0.3c0.3,0.1,0.7,0.3,1,0.4c0.3,0.2,0.6,0.4,0.8,0.6c0.5,0.5,0.8,1.2,0.8,1.9c0,0.6-0.1,1.2-0.4,1.7
		s-0.6,0.9-1.1,1.2c-0.5,0.3-1,0.6-1.6,0.7c-0.6,0.2-1.3,0.3-1.9,0.3c-0.4,0-0.9,0-1.3-0.1s-0.8-0.2-1.2-0.4
		c-0.4-0.2-0.8-0.4-1.1-0.7c-0.4-0.3-0.7-0.6-0.9-1l-0.1-0.1C339.9,427.2,339.9,427.1,339.9,427L339.9,427L339.9,427z M362.4,416.3
		c0.2,0,0.3,0.1,0.3,0.2v0.1v0.4c0,0.1,0,0.2-0.1,0.2c-0.1,0.1-0.2,0.1-0.3,0.1h-7.6v4.6h6.1c0.1,0,0.2,0,0.2,0.1
		c0.1,0.1,0.1,0.2,0.1,0.2v0.4c0,0.2-0.1,0.3-0.3,0.3c0,0,0,0-0.1,0h-6.1v5.2h7.8c0.2,0,0.3,0.1,0.3,0.2v0.1v0.5
		c0,0.2-0.1,0.3-0.3,0.3h-8.6c-0.1,0-0.1,0-0.2-0.1s-0.1-0.1-0.1-0.2v-12.4c0-0.1,0-0.2,0.1-0.2c0.1-0.1,0.2-0.1,0.2-0.1
		L362.4,416.3z"/>
	<polygon class="st0" points="196.9,88.1 162.9,88.1 162.9,93.1 176.9,93.1 176.9,134.5 182.8,134.5 182.8,93.1 196.9,93.1 	"/>
	<path class="st0" d="M222.5,132.4l-6,13.1c-1.4,3.4-3,6.7-4.6,10.1h-0.3c-1.6-3.5-3-6.7-4.5-10.1l-6-13.1H198v6.5l10.7,21.9v18h5.9
		v-18l14-28.4H222.5z"/>
	<path class="st0" d="M219.1,112.1c0-9.7-6.8-13.1-16.2-13.1h-14.5v46.4h5.9v-19.6h5.1c0,0,2.2,0,4-0.1l8.2,18.4l0.7,1.7l3.5-6.8
		l-6.3-14.1C215.2,123.2,219.1,119,219.1,112.1z M194.2,121v-17.2h7.8c7.2,0,11.2,2.2,11.2,8.3c0,6.1-4,8.9-11.2,8.9
		C202,121,194.2,121,194.2,121z"/>
</g>
<path class="st1" d="M1173.5,12.3h3.7V8.6c0-1.6,0-4.1,1.3-5.6c1.3-1.9,3.4-2.6,5.7-2.6c2.2,0,4.5,0.2,6.7,0.6l-1,5.4
	c-1-0.3-1.9-0.5-3-0.5c-1.4,0-2.9,0.5-2.9,1.9v4.1h5.9l-0.5,5.6h-5.6v18.7h-7V17.5h-3.5v-5.3h0.2L1173.5,12.3L1173.5,12.3z"/>
<path class="st1" d="M1086.7,4.9c-1.6,0.6-3.2,1.1-5.1,1.4c1.9-1.1,3.2-2.9,3.8-4.9c-1.6,1-3.7,1.6-5.6,2.1
	c-3.4-3.5-8.8-3.7-12.3-0.5c-1.9,1.6-2.9,4-2.9,6.5c0,0.6,0.2,1.4,0.3,1.9c-7-0.5-13.7-3.7-17.9-9.1c-2.2,4-1.1,9.1,2.6,11.7
	c-1.4,0-2.9-0.5-4-1.1v0.2c0,4.1,3,7.7,7,8.6c-0.6,0.2-1.6,0.3-2.2,0.3c-0.5,0-1.1,0-1.6-0.2c1.1,3.5,4.5,6.1,8.1,6.1
	c-3,2.4-6.9,3.8-10.9,3.7c-0.6,0-1.4,0-2.1-0.2c4,2.6,8.8,4,13.4,4c16.1,0,24.9-13.2,24.9-24.9c0-0.5,0-0.6,0-1.1
	C1084,8.1,1085.6,6.5,1086.7,4.9"/>
<g>
	<path class="st1" d="M1118.4,13h-10.2v16.9c0.3,3.4,3,5.9,6.2,6.2h23.1c3.2-0.5,5.7-3,6.2-6.1c0.2,0,0.2-13.9,0.2-16.9h-10.2
		c4,6.5-0.5,15.2-8.8,14.4c-5.1-0.5-8.7-5.1-8-10.2C1117.3,14.9,1118.4,13,1118.4,13z"/>
	<path class="st1" d="M1122.1,12.1c-1.9,1.1-3,3-3.4,5.1c-0.5,4,2.2,7.5,6.1,7.8c4,0.5,7.5-2.2,7.8-6.1c0-0.3,0-0.5,0-0.8
		c0.2-3.8-3.2-7-6.7-7C1124.6,11.1,1123.3,11.4,1122.1,12.1z M1131.1,19.6c-0.8,2.6-3.4,4.1-6.1,3.8c-3-0.5-4.8-3.4-4.1-6.2
		c0-0.3,0.2-0.6,0.3-1c0.6-1.9,2.6-3,4.5-3c2.9-0.2,5.3,1.9,5.6,4.8C1131.2,18.5,1131.2,19.1,1131.1,19.6L1131.1,19.6z"/>
	<path class="st1" d="M1143.9,12c0-4.6-0.1-7.7-2.2-9.7c-1.1-1.1-2.6-1.9-4.1-1.9h-20v9.1h-1.6V0.3h-1v9.1h-1.6V0.3
		c-0.3,0-0.6,0.2-1,0.3v8.8h-1.6v-8c-0.5,0.3-0.8,0.5-1.3,1c-1.9,1.9-1.3,5.3-1.3,9.7h10.6c0.5-0.3,1-0.5,1.4-1
		c1.6-1.1,3.5-1.6,5.3-1.6l0,0c1.9,0,3.8,0.5,5.3,1.6c0.5,0.5,0.8,0.6,1.4,1 M1140.2,8.1c0,0.5-0.5,1-1,1h-3.8c-0.5,0-1-0.5-1-1V4.3
		c0-0.5,0.5-1,1-1h3.8c0.5,0,1,0.5,1,1V8.1z"/>
</g>
<g>
	
		<linearGradient id="SVGID_1_" gradientUnits="userSpaceOnUse" x1="623.68" y1="2046.49" x2="958.18" y2="2046.49" gradientTransform="matrix(1 0 0 -1 -164.88 2422.74)">
		<stop  offset="0" style="stop-color:#D6BD34"/>
		<stop  offset="0.25" style="stop-color:#D4AF37"/>
		<stop  offset="0.5" style="stop-color:#D6BD34"/>
		<stop  offset="0.75" style="stop-color:#D4AF37"/>
		<stop  offset="1" style="stop-color:#D6BD34"/>
	</linearGradient>
	<path class="st2" d="M600.8,354.3h4.5v29.6c0,4.6-1.5,8-4.5,10.4c-3.3,2.6-8.5,3.9-15.5,3.9c-6.3,0-11.2-1.4-14.6-4.3
		c-3-2.4-4.8-6.1-4.7-10v-29.6h4.5v29.1c0,3.4,1.6,6,4.7,8c3.1,1.8,6.6,2.7,10.2,2.6c3.6,0.1,7.2-0.8,10.4-2.5
		c3.4-2,5.1-4.7,5.1-8.1L600.8,354.3z M458.8,358.6h16.8v39.1h4.4v-39.1h16.7v-4.1h-37.9V358.6z M544.2,373.3h-30.9v-18.9H509v43.4
		h4.3v-20.1h30.9v20.1h4.6v-43.4h-4.6V373.3z M772.7,354.3h-3.9l-21.1,43.4h5.5l6.9-14.7h14.5l-2.5-3.9H762l9.1-19l7,15.2l0,0v0.1
		l8.3,17l2.4,5.4h4.5L772.7,354.3z M747.4,354.3l-15.6,17.1l-15.2-17.1h-5.7l18.6,21.2v22.2h4v-21.9l19.3-21.5L747.4,354.3z
		 M659.3,375.7c-2,1.6-5,2.7-8.9,3.3l12.3,18.6h-4.9l-12.3-18.4H627v18.4h-4.5v-43.2h28.3c3.3-0.1,6.6,1.3,8.9,3.7
		c2.3,2.3,3.5,5.4,3.5,8.7C663.1,370.7,661.9,373.7,659.3,375.7z M658.4,366.9c0.1-1.9-0.5-3.8-1.6-5.3c-1.3-1.8-3.4-2.8-5.6-2.7
		H627v16.2h23.9c2.1,0.1,4.2-0.9,5.5-2.5S658.4,369,658.4,366.9L658.4,366.9z M690.1,354.3l-20.7,43.4h4.5l4.1-9l5.1-10.7l1.4-2.8
		l0,0l7-15.2l9.1,19h-10.2l-2.4,3.9h14.5l6.9,14.7h5.5L694,354.3H690.1z"/>
	
		<linearGradient id="SVGID_2_" gradientUnits="userSpaceOnUse" x1="595.88" y1="2118.3401" x2="986.8801" y2="2118.3401" gradientTransform="matrix(1 0 0 -1 -164.88 2422.74)">
		<stop  offset="0" style="stop-color:#D6BD34"/>
		<stop  offset="0.25" style="stop-color:#D4AF37"/>
		<stop  offset="0.5" style="stop-color:#D6BD34"/>
		<stop  offset="0.75" style="stop-color:#D4AF37"/>
		<stop  offset="1" style="stop-color:#D6BD34"/>
	</linearGradient>
	<path class="st3" d="M431,304.4c32.6-0.9,65.1-1.4,97.7-1.8c16.3-0.2,32.6-0.3,48.9-0.4l48.9-0.1l48.9,0.1
		c16.3,0.1,32.6,0.2,48.9,0.4c32.6,0.3,65.1,0.8,97.7,1.8c-32.6,0.9-65.1,1.4-97.7,1.8c-16.3,0.2-32.6,0.3-48.9,0.4l-48.9,0.1
		l-48.9-0.1c-16.3-0.1-32.6-0.2-48.9-0.4C496.1,305.8,463.6,305.3,431,304.4z"/>
	
		<linearGradient id="SVGID_3_" gradientUnits="userSpaceOnUse" x1="668.38" y1="2296.3899" x2="913.78" y2="2296.3899" gradientTransform="matrix(1 0 0 -1 -164.88 2422.74)">
		<stop  offset="0" style="stop-color:#D6BD34"/>
		<stop  offset="0.25" style="stop-color:#D4AF37"/>
		<stop  offset="0.5" style="stop-color:#D6BD34"/>
		<stop  offset="0.75" style="stop-color:#D4AF37"/>
		<stop  offset="1" style="stop-color:#D6BD34"/>
	</linearGradient>
	<path class="st4" d="M702.4,157.2c3.8-28.5-4.9-51.8-26.1-69.1c-10-8.2-22.3-12.6-36.6-13c-0.6,0-1.3,0-1.9,0c-1.4,0-2.7,0-4.1,0.1
		c2.5-1.3,5.1-2.2,7.8-2.8c13.3-2.6,25.8,0.3,38.3,9.1c17,11.9,27,28.3,29.6,48.6c3.3,24.7-2.8,46.6-18.3,65.2
		c-2.7,3.1-5.6,6-8.8,8.6c0.4-0.6,0.8-1.1,1.2-1.7C694.2,187,700.4,172.3,702.4,157.2z M538.8,195.4c9.6,9.3,20.8,16.5,33.2,21.4
		c15.5,6.1,32.4,7.9,48.9,5.3c15.6-2.3,29.4-8.1,40.9-17.1c5.7-4.4,10.7-9.6,14.8-15.5c-2.8,3.4-5.9,6.5-9.3,9.2
		c-22.1,17.1-48.2,23.2-77.4,18.1c-19.7-3.4-37.8-13.4-53.9-29.6c-13.8-14-24.2-31.1-30.2-49.9c-0.8-2.6-1.6-5.1-2.3-7.7
		C508.4,155.5,520.4,177.7,538.8,195.4z M564.8,52.7c-16.1,21-22.4,42.7-19.4,66.3c2.8,22.2,13.8,39.3,32.6,50.9
		c9.8,6,20,8.6,30.1,7.7c-3.2-1.1-6.4-2.4-9.5-3.8c-15.7-7.2-27.6-17.8-35.4-31.5c-5.9-10.4-9.3-22-10.4-35.5
		c-0.7-8.8-0.1-17.8,1.8-26.4H554l0.7-0.5c1.7-7.3,4.4-14.3,8.1-20.9c2.9-5.3,6.4-10.2,10.3-14.8C570,46.6,567.3,49.5,564.8,52.7z
		 M699.9,63.8c-6.8-6.2-14.7-11.2-23.2-14.6c-15-6.4-31.6-8.3-47.7-5.5c-16.4,2.9-30.2,11-42,25c-10.8,12.8-14.6,26.8-11.5,42.5
		c1.3-4.2,2.8-8.3,4.5-12.3c8.4-19.3,21.4-33,38.9-40.8c19.1-8.5,38.1-10.3,56.6-5.4C684.1,55.1,692.4,58.9,699.9,63.8z
		 M573.4,197.9c18.4,8.7,36,11.3,53.6,7.9c16.3-3,31-11.7,41.5-24.6c8.6-10.4,13.4-23.4,13.7-36.9c0.2-7-1.6-12.6-5.5-17.2
		c0,0.1,0,0.2,0,0.3c-0.4,13.2-3.9,26.1-10.3,37.7c-10.3,18.9-32.3,36.7-59.1,36.7c-4.4,0-8.7-0.5-13-1.4
		c-18.1-3.8-33.4-10.8-46.3-21.2c0.4,0.5,0.8,0.9,1.1,1.4C555.1,187.4,562.8,192.9,573.4,197.9z M561.8,31
		c-12.9,12.8-22.5,28.8-28.4,47.7c-4.5,13.7-5.4,28.4-2.6,42.6c2.6,13.3,8.4,25.7,17.6,38c2.3,3.1,5,6.1,7.8,8.8
		c-4.4-5.1-8.1-10.8-11.2-16.8c-7.1-13.9-10.2-28.9-9.6-45.9C535.9,89,540.2,73,548,58.6c11.7-21.5,29.1-37.9,51.7-48.7
		c6.3-3,12.9-5.5,19.6-7.3c-2.3,0.3-4.5,0.7-6.7,1.2C593.3,7.8,575.7,17.2,561.8,31z M695.7,216.2c13.2-14.1,22.1-31.2,26.5-50.7
		c2.8-12.6,3.4-24.1,1.9-35.3c-1.9-14.2-7.4-27.2-16.6-39.5c-3.9-5.3-8.5-10.1-13.8-14.1c4.4,3.9,8.3,8.3,11.6,13.2
		c11.1,16.7,16.4,33.5,16.3,51.2c-0.1,20.8-6.6,40.9-19.2,59.6c-12.9,19.2-31.3,33.7-54.4,42.9c-7.3,2.9-15,5.2-22.7,6.6
		C652.1,247.9,677.2,235.8,695.7,216.2L695.7,216.2z M729.3,73.4c8.3,11.1,14.9,23.4,19.6,36.4c-0.4-1.4-0.8-2.9-1.2-4.3
		c-4.8-16.2-13.1-30.8-25.4-44.8C705.2,41.3,683.6,30,658,27.3c-17-1.9-34.3,1-49.8,8.4c-8.4,3.8-16.1,9.1-22.5,15.7
		c13-10.4,28.6-17.1,45.1-19.4c4.1-0.6,8.3-0.8,12.5-0.8c7.1,0,14.2,0.7,21.1,2.1C691.6,38.7,713.5,52.1,729.3,73.4z"/>
	
		<linearGradient id="SVGID_4_" gradientUnits="userSpaceOnUse" x1="623.68" y1="1999.04" x2="958.1801" y2="1999.04" gradientTransform="matrix(1 0 0 -1 -164.88 2422.74)">
		<stop  offset="0" style="stop-color:#D6BD34"/>
		<stop  offset="0.25" style="stop-color:#D4AF37"/>
		<stop  offset="0.5" style="stop-color:#D6BD34"/>
		<stop  offset="0.75" style="stop-color:#D4AF37"/>
		<stop  offset="1" style="stop-color:#D6BD34"/>
	</linearGradient>
	<path class="st5" d="M458.8,416.7c0-0.1,0-0.2,0.1-0.3c0.1-0.1,0.2-0.1,0.3-0.1h4.2c0.5,0,1.1,0.1,1.6,0.3c0.5,0.2,0.9,0.5,1.3,0.8
		c0.4,0.4,0.6,0.8,0.8,1.3c0.2,0.5,0.3,1,0.3,1.6c0,0.5-0.1,1.1-0.3,1.6c-0.4,1-1.2,1.7-2.1,2.1c-0.5,0.2-1,0.3-1.6,0.3h-3.5v4.5
		c0,0.2-0.1,0.4-0.3,0.4h-0.1h-0.2c-0.3,0-0.4-0.1-0.4-0.4L458.8,416.7L458.8,416.7z M466.4,420.3c0-0.4-0.1-0.8-0.2-1.2
		c-0.2-0.4-0.4-0.7-0.7-1c-0.6-0.6-1.3-0.9-2.2-0.9h-3.5v6.2h3.6c0.4,0,0.8-0.1,1.2-0.2c0.4-0.2,0.7-0.4,1-0.7
		c0.3-0.3,0.5-0.6,0.7-1C466.3,421.1,466.4,420.7,466.4,420.3L466.4,420.3z M480.1,416.2c0.2,0,0.3,0.1,0.3,0.2v0.1v0.4
		c0,0.1,0,0.2-0.1,0.2c-0.1,0.1-0.2,0.1-0.3,0.1h-7.6v4.6h6.1c0.1,0,0.2,0,0.2,0.1c0.1,0.1,0.1,0.2,0.1,0.2v0.4
		c0,0.2-0.1,0.3-0.3,0.3c0,0,0,0-0.1,0h-6.1v5.2h7.8c0.2,0,0.3,0.1,0.3,0.2v0.1v0.5c0,0.2-0.1,0.3-0.3,0.3h-8.6
		c-0.1,0-0.1,0-0.2-0.1s-0.1-0.1-0.1-0.2v-12.4c0-0.1,0-0.2,0.1-0.2c0.1-0.1,0.2-0.1,0.2-0.1L480.1,416.2L480.1,416.2z M489.5,416.2
		c1.1,0,2.1,0.4,2.9,1.2c0.4,0.4,0.6,0.8,0.8,1.3c0.4,0.9,0.4,1.9,0.1,2.8c-0.1,0.4-0.3,0.7-0.5,1.1c-0.2,0.3-0.5,0.6-0.8,0.8
		c-0.3,0.3-0.6,0.5-1,0.6l2.2,4.8c0,0.1,0,0.1,0,0.2v0.1l-0.1,0.1c-0.1,0-0.2,0-0.2,0h-0.5c-0.1,0-0.2-0.1-0.2-0.2l-2.1-4.7
		c-0.1,0-0.2,0-0.4,0.1c-0.1,0-0.3,0-0.4,0H485v4.5c0,0.2-0.1,0.3-0.2,0.3h-0.1h-0.4c-0.1,0-0.3-0.1-0.3-0.2v-0.1v-12.4
		c0-0.1,0.1-0.2,0.1-0.2c0.1,0,0.1-0.1,0.2-0.1L489.5,416.2z M489,423.4h0.2c0.2,0,0.4,0,0.7,0c0.2,0,0.4-0.1,0.7-0.1
		c0.3-0.1,0.6-0.3,0.8-0.4c0.3-0.2,0.5-0.4,0.7-0.7c0.2-0.3,0.3-0.5,0.4-0.8s0.2-0.6,0.2-1s-0.1-0.8-0.2-1.2c-0.2-0.4-0.4-0.7-0.6-1
		c-0.3-0.3-0.6-0.5-1-0.7s-0.8-0.2-1.2-0.2h-4.3v6.2L489,423.4z M506.3,416.2c0.2,0,0.3,0.1,0.3,0.3v0.4c0,0.1,0,0.2-0.1,0.2
		c-0.1,0.1-0.2,0.1-0.3,0.1h-7.6v5.1h6.1c0.1,0,0.2,0,0.2,0.1c0.1,0.1,0.1,0.2,0.1,0.3v0.4c0,0.1,0,0.2-0.1,0.2
		c-0.1,0.1-0.2,0.1-0.2,0.1h-6.1v5.4c0,0.2-0.1,0.3-0.3,0.3h-0.5c-0.1,0-0.3-0.1-0.3-0.2v-0.1v-12.4c0-0.2,0.1-0.3,0.2-0.3h0.1h8.5
		L506.3,416.2L506.3,416.2z M511,424c0,0.6,0.1,1.2,0.3,1.7c0.4,1.1,1.2,1.9,2.3,2.3c0.6,0.2,1.1,0.4,1.7,0.3c0.6,0,1.2-0.1,1.8-0.3
		c0.5-0.2,1-0.5,1.4-0.9s0.7-0.9,0.9-1.4c0.2-0.6,0.3-1.1,0.3-1.7v-7.5c0-0.1,0-0.2,0.1-0.2c0.1-0.1,0.2-0.1,0.2-0.1h0.3
		c0.1,0,0.2,0,0.2,0.1c0.1,0.1,0.1,0.1,0.1,0.2v7.6c0,1.4-0.6,2.8-1.6,3.8c-0.5,0.5-1.1,0.8-1.7,1.1c-0.7,0.3-1.4,0.4-2.1,0.4
		c-0.5,0-1-0.1-1.4-0.2s-0.9-0.3-1.3-0.5c-0.4-0.2-0.8-0.5-1.1-0.8c-0.3-0.3-0.6-0.7-0.8-1.1c-0.2-0.4-0.4-0.8-0.5-1.3
		s-0.2-0.9-0.2-1.4v-7.6c0-0.1,0-0.2,0.1-0.2c0.1-0.1,0.1-0.1,0.2-0.1h0.4c0.1,0,0.2,0,0.2,0.1c0.1,0.1,0.1,0.1,0.1,0.2L511,424
		L511,424z M537.7,422.8c0.2,2,0.4,4.1,0.6,6.2l0,0c0,0.1-0.1,0.3-0.2,0.3H538h-0.4c-0.2,0-0.3-0.1-0.3-0.3c0,0,0,0,0-0.1l-1-10.7
		l-4.4,9.9c0,0.1-0.1,0.1-0.2,0.2c-0.1,0-0.1,0.1-0.2,0.1h-0.2c-0.1,0-0.1,0-0.2,0c-0.1,0-0.1-0.1-0.2-0.2l-2.2-5
		c-0.7-1.7-1.5-3.3-2.2-5l-1,10.7c0,0.2-0.1,0.3-0.2,0.3h-0.1h-0.4c-0.1,0-0.2,0-0.2-0.1c-0.1-0.1-0.1-0.2-0.1-0.3l1.2-12.3
		c0-0.1,0-0.2,0.1-0.3c0.1,0,0.2-0.1,0.2-0.1h0.6c0.1,0,0.2,0.1,0.2,0.2l4.6,10.2l4.6-10.2c0-0.1,0.1-0.1,0.1-0.2
		c0.1,0,0.1-0.1,0.2-0.1h0.5c0.1,0,0.2,0,0.2,0.1c0.1,0.1,0.1,0.1,0.1,0.2v0.1C537.4,418.7,537.5,420.7,537.7,422.8L537.7,422.8z
		 M551.1,416.2c0.2,0,0.3,0.1,0.3,0.2v0.1v0.4c0,0.1,0,0.2-0.1,0.2c-0.1,0.1-0.2,0.1-0.3,0.1h-7.6v4.6h6.1c0.1,0,0.2,0,0.2,0.1
		c0.1,0.1,0.1,0.2,0.1,0.2v0.4c0,0.2-0.1,0.3-0.3,0.3c0,0,0,0-0.1,0h-6.1v5.2h7.8c0.2,0,0.3,0.1,0.3,0.2v0.1v0.5
		c0,0.2-0.1,0.3-0.3,0.3h-8.6c-0.1,0-0.1,0-0.2-0.1c-0.1-0.1-0.1-0.1-0.1-0.2v-12.4c0-0.1,0-0.2,0.1-0.2c0.1-0.1,0.2-0.1,0.2-0.1
		L551.1,416.2L551.1,416.2z M554.7,426.9l0.3-0.3c0.1-0.1,0.2-0.1,0.3-0.1s0.1,0,0.2,0.1l0.1,0.1c0.3,0.3,0.5,0.5,0.8,0.7
		s0.6,0.4,0.9,0.5c0.3,0.1,0.7,0.3,1,0.3c0.3,0.1,0.7,0.1,1,0.1c0.5,0,0.9-0.1,1.4-0.2c0.4-0.1,0.9-0.3,1.2-0.5
		c0.4-0.2,0.7-0.5,0.9-0.9s0.4-0.9,0.3-1.3c0-0.3-0.1-0.5-0.2-0.8c-0.1-0.2-0.3-0.4-0.5-0.6s-0.4-0.3-0.7-0.4s-0.6-0.2-0.8-0.3
		c-0.3-0.1-0.6-0.2-0.9-0.3l-0.9-0.2c-0.6-0.1-1.3-0.3-1.9-0.5c-0.5-0.2-0.9-0.4-1.3-0.7c-0.3-0.2-0.6-0.6-0.8-0.9
		c-0.2-0.4-0.3-0.8-0.3-1.2c0-0.5,0.1-1,0.3-1.4s0.5-0.8,0.9-1.1c0.4-0.3,0.9-0.6,1.4-0.7c0.6-0.2,1.2-0.3,1.9-0.2
		c0.7,0,1.5,0.1,2.2,0.4s1.3,0.7,1.8,1.2l0.2,0.2l0.1,0.1c0,0.1,0,0.1-0.1,0.2l-0.2,0.3l-0.1,0.1h-0.1c-0.1,0-0.2-0.1-0.3-0.2
		c-0.2-0.2-0.4-0.3-0.6-0.5c-0.2-0.2-0.5-0.3-0.7-0.4c-0.3-0.1-0.6-0.2-0.9-0.3c-0.4-0.1-0.7-0.1-1.1-0.1c-0.5,0-1,0.1-1.5,0.2
		c-0.4,0.1-0.7,0.3-1.1,0.5c-0.5,0.4-0.8,1.1-0.8,1.8c0,0.2,0,0.5,0.1,0.7s0.2,0.4,0.4,0.5c0.2,0.2,0.4,0.3,0.6,0.4
		c0.2,0.1,0.5,0.2,0.7,0.3c0.3,0.1,0.5,0.2,0.8,0.3s0.6,0.2,0.8,0.2l1.1,0.3c0.4,0.1,0.7,0.2,1.1,0.3c0.3,0.1,0.7,0.3,1,0.4
		c0.3,0.2,0.6,0.4,0.8,0.6c0.5,0.5,0.8,1.2,0.8,1.9c0,0.6-0.1,1.2-0.4,1.7c-0.3,0.5-0.6,0.9-1.1,1.2c-0.5,0.3-1,0.6-1.6,0.7
		c-0.6,0.2-1.3,0.3-1.9,0.3c-0.4,0-0.9,0-1.3-0.1c-0.4-0.1-0.8-0.2-1.2-0.4c-0.4-0.2-0.8-0.4-1.1-0.7c-0.4-0.3-0.7-0.6-0.9-1
		l-0.1-0.1V427C554.7,427,554.7,427,554.7,426.9L554.7,426.9z M575.6,415.4c0-0.1,0-0.2,0.1-0.3c0.1-0.1,0.1-0.1,0.2-0.1h0.5
		c0.1,0,0.2,0,0.2,0.1c0.1,0.1,0.1,0.2,0.1,0.3V432c0,0.1,0,0.2-0.1,0.3c-0.1,0.1-0.1,0.1-0.2,0.1H576c-0.1,0-0.2,0-0.2-0.1
		c-0.1-0.1-0.1-0.2-0.1-0.3L575.6,415.4z M599.2,417.5c0.1,0.1,0.2,0.2,0.2,0.3c0,0.1,0,0.1-0.1,0.2l-0.2,0.3l-0.1,0.1h-0.1
		c-0.1,0-0.3-0.1-0.4-0.2c-0.5-0.4-1-0.6-1.6-0.8c-0.6-0.2-1.2-0.3-1.8-0.3c-0.5,0-1,0.1-1.5,0.2c-1,0.3-1.8,0.8-2.5,1.5
		c-0.3,0.3-0.6,0.7-0.9,1.2c-0.2,0.4-0.4,0.9-0.6,1.3c-0.1,0.5-0.2,1-0.2,1.5s0.1,1,0.2,1.5c0.1,0.5,0.3,0.9,0.6,1.4
		c0.3,0.4,0.6,0.8,0.9,1.2c0.3,0.3,0.7,0.7,1.1,0.9c0.4,0.3,0.9,0.5,1.3,0.6c0.8,0.2,1.6,0.3,2.4,0.1c0.7-0.1,1.3-0.4,1.9-0.7
		c0.3-0.2,0.6-0.3,0.8-0.5c0.1-0.1,0.1-0.1,0.2-0.1c0.1,0,0.3,0.1,0.3,0.2l0.1,0.2c0,0.1,0.1,0.1,0.1,0.2s-0.1,0.3-0.2,0.3
		c-0.6,0.4-1.2,0.8-1.9,1c-1.3,0.4-2.7,0.5-4,0.1c-1.1-0.3-2.1-0.9-2.9-1.7c-0.4-0.4-0.8-0.9-1.1-1.4s-0.5-1-0.7-1.6
		s-0.2-1.2-0.2-1.8c0-0.6,0.1-1.2,0.2-1.8c0.1-0.6,0.4-1.1,0.7-1.6s0.6-0.9,1-1.3s0.9-0.8,1.4-1c0.5-0.3,1-0.5,1.6-0.7
		c1.3-0.4,2.7-0.3,4,0.1C598.1,416.7,598.7,417.1,599.2,417.5L599.2,417.5z M602.8,428.9l0.1-0.4l0.1-0.3l4.9-11.8
		c0-0.1,0.1-0.1,0.1-0.2c0.1-0.1,0.1-0.1,0.2-0.1h0.4c0.1,0,0.2,0,0.2,0.1l0.1,0.2l5.1,12.4v0.1v0.1c0,0.1-0.1,0.2-0.3,0.2h-0.5
		c-0.1,0-0.3-0.1-0.3-0.2l-1.2-3h-6.6c-0.2,0.6-0.4,1.1-0.6,1.6c-0.2,0.5-0.4,1-0.6,1.4c0,0.1-0.2,0.2-0.3,0.2h-0.5
		C602.9,429.2,602.8,429.2,602.8,428.9L602.8,428.9C602.8,429,602.8,429,602.8,428.9L602.8,428.9z M605.6,424.9h5.8l-2.9-7
		L605.6,424.9z M627.7,416.5c0-0.2,0.1-0.3,0.3-0.3c0,0,0,0,0.1,0h0.4c0.2,0,0.3,0.1,0.3,0.3V429c0,0.2-0.1,0.3-0.3,0.3H628
		c-0.1,0-0.2-0.1-0.3-0.1l-8.8-11.2v11c0,0.2-0.1,0.3-0.3,0.3h-0.4c-0.2,0-0.3-0.1-0.3-0.2V429v-12.4c0-0.1,0-0.1,0-0.2l0.1-0.1
		c0.1,0,0.2,0,0.3,0h0.5c0.1,0,0.1,0,0.2,0.1l2.2,2.7l2.3,2.8l2.3,2.8l2.2,2.7L627.7,416.5z M633.3,416.5c0-0.2,0.1-0.3,0.2-0.3
		c0,0,0,0,0.1,0h4.2c0.6,0,1.2,0.1,1.7,0.2c0.5,0.2,1.1,0.4,1.6,0.7c0.5,0.3,0.9,0.6,1.3,1c0.4,0.4,0.7,0.8,1,1.3
		c0.6,1,0.9,2.1,0.8,3.3c0,0.6-0.1,1.2-0.2,1.7c-0.2,0.5-0.4,1.1-0.7,1.6s-0.6,0.9-1,1.3c-0.8,0.8-1.8,1.4-2.9,1.7
		c-0.6,0.2-1.2,0.2-1.8,0.2h-4.1h-0.1l0,0h-0.1c0,0-0.1,0-0.1-0.1V429L633.3,416.5z M637.7,428.1c0.5,0,1-0.1,1.5-0.2
		s0.9-0.3,1.3-0.6c0.8-0.5,1.5-1.1,2-2c0.2-0.4,0.4-0.8,0.5-1.3s0.2-1,0.2-1.4c0-0.7-0.1-1.5-0.4-2.1c-0.3-0.6-0.7-1.2-1.2-1.7
		s-1.1-0.9-1.7-1.1c-0.7-0.3-1.4-0.4-2.1-0.4h-3.4v10.8L637.7,428.1z M656.5,428.1c0.1,0,0.2,0,0.2,0.1c0.1,0.1,0.1,0.2,0.1,0.2v0.5
		c0,0.1,0,0.2-0.1,0.2c-0.1,0.1-0.1,0.1-0.2,0.1h-7.6c-0.1,0-0.3-0.1-0.3-0.2v-0.1v-12.3c0-0.1,0-0.2,0.1-0.2
		c0.1-0.1,0.2-0.1,0.2-0.1h0.5c0.1,0,0.2,0,0.2,0.1c0.1,0.1,0.1,0.1,0.1,0.2v11.6L656.5,428.1z M669.2,416.2c0.2,0,0.3,0.1,0.3,0.2
		v0.1v0.4c0,0.1,0,0.2-0.1,0.2c-0.1,0.1-0.2,0.1-0.3,0.1h-7.6v4.6h6.1c0.1,0,0.2,0,0.2,0.1c0.1,0.1,0.1,0.2,0.1,0.2v0.5
		c0,0.1,0,0.2-0.1,0.2c-0.1,0.1-0.2,0.1-0.3,0.1h-6.1v5.2h7.8c0.2,0,0.3,0.1,0.3,0.2v0.1v0.5c0,0.2-0.1,0.3-0.2,0.3h-0.1h-8.6
		c-0.1,0-0.1,0-0.2-0.1c-0.1-0.1-0.1-0.1-0.1-0.2v-12.4c0-0.1,0-0.2,0.1-0.2c0.1-0.1,0.2-0.1,0.2-0.1L669.2,416.2z M672.8,426.9
		l0.3-0.3c0.1-0.1,0.2-0.1,0.3-0.1s0.1,0,0.2,0.1l0.1,0.1c0.3,0.3,0.5,0.5,0.8,0.7s0.6,0.4,0.9,0.5c0.3,0.1,0.7,0.3,1,0.3
		c0.3,0.1,0.7,0.1,1,0.1c0.5,0,0.9-0.1,1.4-0.2c0.4-0.1,0.9-0.3,1.2-0.5c0.4-0.2,0.7-0.5,0.9-0.9s0.4-0.9,0.3-1.3
		c0-0.3-0.1-0.5-0.2-0.8c-0.1-0.2-0.3-0.4-0.5-0.6s-0.4-0.3-0.7-0.4s-0.6-0.2-0.8-0.3c-0.3-0.1-0.6-0.2-0.9-0.3l-0.9-0.2
		c-0.6-0.1-1.3-0.3-1.9-0.5c-0.5-0.2-0.9-0.4-1.3-0.7c-0.3-0.2-0.6-0.6-0.8-0.9c-0.2-0.4-0.3-0.8-0.3-1.2c0-0.5,0.1-1,0.3-1.4
		s0.5-0.8,0.9-1.1c0.4-0.3,0.9-0.6,1.4-0.7c0.6-0.2,1.2-0.3,1.9-0.2c0.7,0,1.5,0.1,2.2,0.4s1.3,0.7,1.8,1.2c0.1,0.1,0.1,0.1,0.2,0.2
		l0.1,0.1c0,0.1,0,0.1-0.1,0.2l-0.3,0.3l-0.1,0.1h-0.1c-0.1,0-0.2-0.1-0.3-0.2c-0.2-0.2-0.4-0.3-0.6-0.5c-0.2-0.2-0.5-0.3-0.7-0.4
		c-0.3-0.1-0.6-0.2-0.9-0.3c-0.4-0.1-0.7-0.1-1.1-0.1c-0.5,0-1,0.1-1.5,0.2c-0.4,0.1-0.7,0.3-1.1,0.5c-0.5,0.4-0.8,1.1-0.8,1.8
		c0,0.2,0,0.5,0.1,0.7s0.2,0.4,0.4,0.5c0.2,0.2,0.4,0.3,0.6,0.4c0.2,0.1,0.5,0.2,0.7,0.3c0.3,0.1,0.5,0.2,0.8,0.3
		c0.3,0.1,0.6,0.2,0.8,0.2l1.1,0.3c0.4,0.1,0.7,0.2,1.1,0.3c0.3,0.1,0.7,0.3,1,0.4c0.3,0.2,0.6,0.4,0.8,0.6s0.4,0.5,0.6,0.8
		c0.1,0.3,0.2,0.7,0.2,1.1c0,0.6-0.1,1.2-0.4,1.7c-0.3,0.5-0.6,0.9-1.1,1.2c-0.5,0.3-1,0.6-1.6,0.7c-0.6,0.2-1.3,0.3-1.9,0.3
		c-0.4,0-0.9,0-1.3-0.1c-0.4-0.1-0.8-0.2-1.2-0.4c-0.4-0.2-0.8-0.4-1.1-0.7c-0.4-0.3-0.7-0.6-0.9-1l-0.1-0.1V427
		C672.8,427,672.8,427,672.8,426.9z M693.8,415.4c0-0.1,0-0.2,0.1-0.3c0.1-0.1,0.1-0.1,0.2-0.1h0.5c0.1,0,0.2,0,0.2,0.1
		c0.1,0.1,0.1,0.2,0.1,0.3V432c0,0.1,0,0.2-0.1,0.3c-0.1,0.1-0.1,0.1-0.2,0.1h-0.5c-0.1,0-0.2,0-0.2-0.1c-0.1-0.1-0.1-0.2-0.1-0.3
		V415.4z M707.2,416.6c0-0.1,0-0.2,0.1-0.2c0.1-0.1,0.1-0.1,0.2-0.1h0.5c0.1,0,0.2,0,0.2,0.1c0.1,0.1,0.1,0.1,0.1,0.2V429
		c0,0.2-0.1,0.3-0.2,0.3H708h-0.5c-0.2,0-0.3-0.1-0.3-0.2V429V416.6z M722.7,416.6c0-0.2,0.1-0.3,0.3-0.3c0,0,0,0,0.1,0h0.4
		c0.2,0,0.3,0.1,0.3,0.3V429c0,0.2-0.1,0.3-0.3,0.3h-0.4c-0.1,0-0.2-0.1-0.3-0.1L714,418v11c0,0.2-0.1,0.3-0.3,0.3h-0.4
		c-0.1,0-0.3-0.1-0.3-0.2V429v-12.4c0-0.1,0-0.1,0-0.2l0.1-0.1c0.1,0,0.2,0,0.3,0h0.5c0.1,0,0.1,0,0.2,0.1l2.2,2.7
		c0.7,0.9,1.5,1.9,2.3,2.8l2.3,2.8l2.2,2.7L722.7,416.6z M738.5,417.5c0.1,0,0.2,0.2,0.2,0.3c0,0.1,0,0.1-0.1,0.2l-0.2,0.3l-0.1,0.1
		h-0.1c-0.1,0-0.2-0.1-0.3-0.2c-0.5-0.4-1-0.6-1.6-0.8c-0.6-0.2-1.2-0.3-1.8-0.3c-1,0-2,0.3-2.9,0.8c-0.4,0.3-0.8,0.6-1.2,0.9
		c-0.3,0.3-0.6,0.7-0.9,1.2c-0.2,0.4-0.4,0.9-0.6,1.3c-0.1,0.5-0.2,1-0.2,1.5s0.1,1,0.2,1.5c0.1,0.5,0.3,0.9,0.6,1.4
		c0.5,0.8,1.2,1.6,2.1,2.1c0.4,0.3,0.9,0.5,1.3,0.6c0.5,0.1,0.9,0.2,1.4,0.2c0.3,0,0.6,0,0.9-0.1c0.3-0.1,0.6-0.1,0.9-0.3
		c0.3-0.1,0.6-0.2,0.9-0.4c0.3-0.2,0.6-0.3,0.8-0.5c0.1-0.1,0.1-0.1,0.2-0.1c0.1,0,0.3,0.1,0.3,0.2l0.1,0.2c0,0.1,0.1,0.1,0.1,0.2
		s-0.1,0.3-0.2,0.3c-0.6,0.4-1.2,0.8-1.9,1s-1.5,0.4-2.2,0.4c-0.6,0-1.2-0.1-1.8-0.2c-0.6-0.2-1.1-0.4-1.7-0.7
		c-0.5-0.3-0.9-0.6-1.4-1c-0.4-0.4-0.8-0.9-1-1.4c-0.3-0.5-0.5-1-0.7-1.6s-0.2-1.2-0.2-1.8c0-0.6,0.1-1.2,0.2-1.8
		c0.2-0.6,0.4-1.1,0.7-1.6s0.6-0.9,1-1.3s0.9-0.8,1.4-1c0.5-0.3,1-0.5,1.6-0.7c1.3-0.4,2.7-0.3,4,0.1
		C737.2,416.7,737.9,417,738.5,417.5L738.5,417.5z M751.6,416.3c0.2,0,0.3,0.1,0.3,0.2v0.1v0.4c0,0.1,0,0.2-0.1,0.2
		c-0.1,0.1-0.2,0.1-0.3,0.1h-7.6v4.6h6.1c0.1,0,0.2,0,0.2,0.1c0.1,0.1,0.1,0.2,0.1,0.2v0.4c0,0.2-0.1,0.3-0.3,0.3c0,0,0,0-0.1,0
		h-6.1v5.2h7.8c0.2,0,0.3,0.1,0.3,0.2v0.1v0.5c0,0.2-0.1,0.3-0.3,0.3H743c-0.1,0-0.1,0-0.2-0.1c-0.1-0.1-0.1-0.1-0.1-0.2v-12.4
		c0-0.1,0-0.2,0.1-0.2c0.1-0.1,0.2-0.1,0.2-0.1L751.6,416.3z M765.5,416.6c0-0.2,0.1-0.3,0.3-0.3c0,0,0,0,0.1,0h0.4
		c0.2,0,0.3,0.1,0.3,0.3V429c0,0.2-0.1,0.3-0.3,0.3h-0.4c-0.1,0-0.2-0.1-0.3-0.1l-8.9-11.2v11c0,0.2-0.1,0.3-0.3,0.3H756
		c-0.1,0-0.3-0.1-0.3-0.2V429v-12.4c0-0.1,0-0.1,0-0.2l0.1-0.1c0.1,0,0.2,0,0.3,0h0.5c0.1,0,0.1,0,0.2,0.1c0.7,0.8,1.4,1.8,2.1,2.7
		l2.3,2.8l2.3,2.8l2.2,2.7L765.5,416.6z M770.5,426.9l0.3-0.3c0.1-0.1,0.2-0.1,0.3-0.1s0.1,0,0.2,0.1l0.1,0.1
		c0.3,0.3,0.5,0.5,0.8,0.7s0.6,0.4,0.9,0.5c0.3,0.1,0.7,0.3,1,0.3c0.3,0.1,0.7,0.1,1,0.1c0.5,0,0.9-0.1,1.4-0.2
		c0.4-0.1,0.9-0.3,1.3-0.5c0.4-0.2,0.7-0.5,0.9-0.9s0.4-0.9,0.3-1.3c0-0.3-0.1-0.5-0.2-0.8c-0.1-0.2-0.3-0.4-0.5-0.6
		s-0.4-0.3-0.7-0.4s-0.6-0.2-0.8-0.3c-0.3-0.1-0.6-0.2-0.9-0.3l-0.9-0.2c-0.6-0.1-1.3-0.3-1.9-0.5c-0.5-0.2-0.9-0.4-1.3-0.7
		c-0.3-0.2-0.6-0.6-0.8-0.9c-0.2-0.4-0.3-0.8-0.3-1.2c0-0.5,0.1-1,0.3-1.4s0.5-0.8,0.9-1.1c0.4-0.3,0.9-0.6,1.4-0.7
		c0.6-0.2,1.2-0.3,1.9-0.2c0.7,0,1.5,0.1,2.2,0.4s1.3,0.7,1.8,1.2c0.1,0.1,0.1,0.1,0.2,0.2l0.1,0.1c0,0.1,0,0.1-0.1,0.2l-0.3,0.3
		l-0.1,0.1h-0.1c-0.1,0-0.2-0.1-0.3-0.2c-0.2-0.2-0.4-0.3-0.6-0.5c-0.2-0.2-0.5-0.3-0.7-0.4c-0.3-0.1-0.6-0.2-0.9-0.3
		c-0.4-0.1-0.7-0.1-1.1-0.1c-0.5,0-1,0.1-1.5,0.2c-0.4,0.1-0.7,0.3-1.1,0.5c-0.5,0.4-0.8,1.1-0.8,1.8c0,0.2,0,0.5,0.1,0.7
		s0.2,0.4,0.4,0.5c0.2,0.2,0.4,0.3,0.6,0.4c0.2,0.1,0.5,0.2,0.7,0.3s0.5,0.2,0.8,0.3s0.6,0.2,0.8,0.2l1.1,0.3
		c0.4,0.1,0.7,0.2,1.1,0.3c0.3,0.1,0.7,0.3,1,0.4c0.3,0.2,0.6,0.4,0.8,0.6c0.5,0.5,0.8,1.2,0.8,1.9c0,0.6-0.1,1.2-0.4,1.7
		c-0.3,0.5-0.6,0.9-1.1,1.2c-0.5,0.3-1,0.6-1.6,0.7c-0.6,0.2-1.3,0.3-1.9,0.3c-0.4,0-0.9,0-1.3-0.1c-0.4-0.1-0.8-0.2-1.2-0.4
		c-0.4-0.2-0.8-0.4-1.1-0.7c-0.4-0.3-0.7-0.6-0.9-1l-0.1-0.1C770.5,427.1,770.5,427.1,770.5,426.9C770.5,427,770.5,427,770.5,426.9
		L770.5,426.9z M793,416.3c0.2,0,0.3,0.1,0.3,0.2v0.1v0.4c0,0.1,0,0.2-0.1,0.2c-0.1,0.1-0.2,0.1-0.3,0.1h-7.6v4.6h6.1
		c0.1,0,0.2,0,0.2,0.1c0.1,0.1,0.1,0.2,0.1,0.2v0.4c0,0.2-0.1,0.3-0.3,0.3c0,0,0,0-0.1,0h-6.1v5.2h7.8c0.2,0,0.3,0.1,0.3,0.2v0.1
		v0.5c0,0.2-0.1,0.3-0.3,0.3h-8.6c-0.1,0-0.1,0-0.2-0.1c-0.1-0.1-0.1-0.1-0.1-0.2v-12.4c0-0.1,0-0.2,0.1-0.2
		c0.1-0.1,0.2-0.1,0.2-0.1L793,416.3z"/>
	
		<linearGradient id="SVGID_5_" gradientUnits="userSpaceOnUse" x1="593.5" y1="2348.75" x2="652.5893" y2="2348.75" gradientTransform="matrix(1 0 0 -1 0 2460)">
		<stop  offset="0" style="stop-color:#D6BD34"/>
		<stop  offset="0.25" style="stop-color:#D4AF37"/>
		<stop  offset="0.5" style="stop-color:#D6BD34"/>
		<stop  offset="0.75" style="stop-color:#D4AF37"/>
		<stop  offset="1" style="stop-color:#D6BD34"/>
	</linearGradient>
	<polygon class="st6" points="627.5,88 593.5,88 593.5,93.1 607.5,93.1 607.5,134.5 613.5,134.5 613.5,93.1 627.5,93.1 	"/>
	
		<linearGradient id="SVGID_6_" gradientUnits="userSpaceOnUse" x1="765.0393" y1="2267.1399" x2="824.1285" y2="2267.1399" gradientTransform="matrix(1 0 0 -1 -164.88 2422.74)">
		<stop  offset="0" style="stop-color:#D6BD34"/>
		<stop  offset="0.25" style="stop-color:#D4AF37"/>
		<stop  offset="0.5" style="stop-color:#D6BD34"/>
		<stop  offset="0.75" style="stop-color:#D4AF37"/>
		<stop  offset="1" style="stop-color:#D6BD34"/>
	</linearGradient>
	<path class="st7" d="M653.1,132.4l-6,13.1c-1.4,3.4-3,6.7-4.6,10.1h-0.3c-1.6-3.5-3-6.7-4.5-10.1l-6-13.1h-3.1v6.5l10.7,21.9v18
		h5.9v-18l14-28.4H653.1z"/>
	<path class="st8" d="M643.8,112c0-6.1-4-8.3-11.2-8.3h-7.8V121h7.8C639.8,121,643.8,118.1,643.8,112z"/>
	
		<linearGradient id="SVGID_7_" gradientUnits="userSpaceOnUse" x1="762.3522" y1="2300.4399" x2="821.4415" y2="2300.4399" gradientTransform="matrix(1 0 0 -1 -164.88 2422.74)">
		<stop  offset="0" style="stop-color:#D6BD34"/>
		<stop  offset="0.25" style="stop-color:#D4AF37"/>
		<stop  offset="0.5" style="stop-color:#D6BD34"/>
		<stop  offset="0.75" style="stop-color:#D4AF37"/>
		<stop  offset="1" style="stop-color:#D6BD34"/>
	</linearGradient>
	<path class="st9" d="M649.7,112c0-9.7-6.8-13.1-16.2-13.1H619v46.4h5.9v-19.6h5.1c0,0,2.2,0,4-0.1l8.2,18.4l0.7,1.7l3.5-6.8
		l-6.3-14.1C645.9,123.1,649.7,118.9,649.7,112z M624.8,121v-17.2h7.8c7.2,0,11.2,2.2,11.2,8.3c0,6.1-4,8.9-11.2,8.9
		C632.6,121,624.8,121,624.8,121z"/>
</g>
<g id="Слой_x0020_1" transform="translate(-1270,-2317)">
	<path id="path3490" d="M2226.6,2327.7h-29.5l3.9,14.6h21.7L2226.6,2327.7z M2223.3,2347.2c0.7,0.2,1.3,0.6,1.9,1.1
		c0.8,0.8,1.2,1.8,1.2,3s-0.5,2.2-1.2,3c-0.8,0.8-1.8,1.2-3,1.2c-1.1,0-2.2-0.5-3-1.2c-0.8-0.8-1.2-1.8-1.2-3c0-0.9,0.3-1.7,0.8-2.4
		h-13.3c0.5,0.7,0.8,1.5,0.8,2.4c0,1.2-0.5,2.2-1.2,3c-0.8,0.8-1.8,1.2-3,1.2s-2.2-0.5-3-1.2c-0.8-0.8-1.2-1.8-1.2-3s0.5-2.2,1.2-3
		c0.8-0.8,1.8-1.2,3-1.2h0.2h19.2l0.8-3h-22.6l-4.8-18.1h1.1h31.1l2.3-8.8h7.2v1.8h-5.8l-1.9,7l-4.8,18.1L2223.3,2347.2z
		 M2223.9,2349.5c-0.4-0.4-1-0.7-1.7-0.7s-1.3,0.3-1.7,0.7s-0.7,1-0.7,1.7s0.3,1.3,0.7,1.7s1,0.7,1.7,0.7s1.3-0.3,1.7-0.7
		s0.7-1,0.7-1.7C2224.6,2350.5,2224.3,2349.9,2223.9,2349.5z M2203.8,2349.5c-0.4-0.4-1-0.7-1.7-0.7s-1.3,0.3-1.7,0.7
		s-0.7,1-0.7,1.7s0.3,1.3,0.7,1.7s1,0.7,1.7,0.7s1.3-0.3,1.7-0.7s0.7-1,0.7-1.7S2204.2,2349.9,2203.8,2349.5z"/>
</g>
<g>
	<rect x="861.6" y="1.7" width="41.4" height="1.7"/>
	<rect x="861.6" y="17.5" width="41.4" height="1.7"/>
	<rect x="861.6" y="33.3" width="41.4" height="1.7"/>
</g>
<g>
	<rect x="987" y="17.4" transform="matrix(0.7071 -0.7071 0.7071 0.7071 282.2248 717.8703)" width="41.4" height="1.7"/>
	<rect x="1006.9" y="-2.3" transform="matrix(0.7071 -0.7071 0.7071 0.7071 282.1634 717.9854)" width="1.7" height="41.4"/>
</g>
<path class="st1" d="M1240.9,37.2l-0.5-0.3c-6.2-4-18.2-14.2-19.6-23.8c-0.5-3.2,0.3-6.1,2.3-8.6c2.8-3.4,6.5-3.9,9.1-3.8
	c3.6,0.2,7,1.8,8.7,3.5c1.7-1.7,5.1-3.3,8.7-3.5c2.6-0.2,6.3,0.4,9.1,3.8c2,2.4,2.8,5.3,2.3,8.6c-1.4,9.6-13.5,19.7-19.6,23.8
	L1240.9,37.2z M1231.5,2.6c-2.1,0-4.9,0.6-7,3.1c-1.7,2-2.3,4.4-1.9,7.1c1.2,8.1,11.4,17.6,18.3,22.2c6.9-4.6,17.1-14.1,18.3-22.2
	c0.4-2.7-0.2-5.1-1.9-7.1c-2.3-2.8-5.4-3.2-7.6-3.1c-3.5,0.2-7,2-8,3.6l-0.8,1.2l-0.8-1.2c-1-1.6-4.5-3.4-8-3.6
	C1231.9,2.6,1231.7,2.6,1231.5,2.6z"/>
<path class="st1" d="M1298.3,39.5l0.2-13.9h18.6h1.8l4.3-23.7l0.2-1.7H1284h-1.7v1.7v22v1.7h1.7h4l8.8,13.9 M1297.5,23.9h-0.9v12.5
	l-6.9-11l-0.9-1.5h-5v-22h37.5l-4,22C1317.3,23.9,1297.5,23.9,1297.5,23.9z"/>
</svg>
